<svg id="Layer_1" data-name="Layer 1" xmlns="http://www.w3.org/2000/svg" viewBox="0 0 1039 1000"><defs><style>.cls-1{fill:#1a1a1a;}.cls-2{fill:#f2f2f2;}.cls-3{fill:none;}.cls-3,.cls-4{stroke:#e6e6e6;stroke-linecap:round;stroke-linejoin:round;stroke-width:23px;}.cls-4,.cls-5{fill:#e6e6e6;}</style></defs><path class="cls-1" d="M1000,500c0,6.52,0,14.53-.58,24.3-12,195-196,475.61-499.42,475.7C228.85,1000.08,0,776.2,0,500S223.86,0,500,0,1000,223.86,1000,500Z"/><path class="cls-2" d="M713.86,675H285.14c-12.13,0-76.66-1.11-128.79-48.77C123.39,596.1,103,554.48,103,508.5h0c0-92,81.55-166.5,182.14-166.5H713.86C814.45,342,896,416.54,896,508.5h0C896,600.46,814.45,675,713.86,675Z"/><circle class="cls-1" cx="308.06" cy="509.07" r="50"/><circle class="cls-1" cx="678.54" cy="509.07" r="50"/><path class="cls-3" d="M992.27,515.05c-39.88,87.88-159.78,320.64-388.08,375.42A421.74,421.74,0,0,1,536.73,901"/><ellipse class="cls-4" cx="503.5" cy="896" rx="53" ry="24.5"/><rect class="cls-5" x="961.5" y="355" width="59.5" height="290.5" rx="18.45"/></svg>